<?xml version="1.0" standalone="no"?>
<!DOCTYPE svg PUBLIC "-//W3C//DTD SVG 20010904//EN"
 "http://www.w3.org/TR/2001/REC-SVG-20010904/DTD/svg10.dtd">
<svg version="1.0" xmlns="http://www.w3.org/2000/svg"
 width="1024.000000pt" height="1024.000000pt" viewBox="0 0 1024.000000 1024.000000"
 preserveAspectRatio="xMidYMid meet">
<metadata>
Created by potrace 1.14, written by Peter Selinger 2001-2017
</metadata>
<g transform="translate(0.000000,1024.000000) scale(0.100000,-0.100000)"
fill="#000000" stroke="none">
<path d="M1536 10198 c-3 -24 -8 -74 -12 -113 -3 -38 -7 -2323 -9 -5077 l-2
-5008 3722 0 3722 0 7 153 c6 138 5 6231 -2 9000 l-2 1087 -38 0 -39 0 -2
-122 c-1 -68 -6 -127 -11 -132 -10 -10 -30 1 -29 17 0 9 2 9 6 0 2 -7 9 -13
15 -13 6 0 5 6 -2 15 -11 14 -15 14 -32 -2 -18 -16 -18 -16 -12 0 5 14 2 16
-12 10 -17 -6 -18 -5 -4 12 9 11 10 16 3 11 -13 -7 -13 -6 -17 139 l-2 60
-3621 3 -3622 2 -5 -42z m5454 -112 c69 0 343 2 610 4 544 4 503 9 612 -73 58
-43 119 -110 143 -157 7 -14 21 -55 30 -90 16 -60 17 -138 10 -975 -4 -500
-11 -931 -16 -957 -11 -59 -53 -145 -88 -178 -92 -87 -125 -110 -179 -126 -53
-15 -258 -16 -2876 -15 l-2818 2 -57 26 c-35 16 -83 53 -127 97 -65 65 -74 79
-100 156 l-29 85 0 940 0 940 34 72 c48 103 152 197 263 236 46 16 1590 25
3203 19 693 -3 1316 -6 1385 -6z m-3066 -2988 c-4 -7 -4 -10 1 -6 4 4 14 3 21
-3 8 -7 14 -6 20 2 4 7 3 9 -4 5 -6 -3 -13 -3 -15 1 -9 14 581 15 1338 3 402
-6 892 -13 1090 -15 356 -3 607 -18 613 -36 2 -5 8 -9 13 -9 6 0 8 4 5 8 -3 5
18 9 47 10 35 2 47 -1 38 -7 -8 -5 -20 -7 -28 -4 -9 4 -11 0 -7 -11 5 -12 2
-15 -10 -10 -18 7 -49 -13 -40 -27 3 -5 0 -9 -5 -9 -6 0 -11 -7 -11 -15 0 -8
-4 -15 -9 -15 -10 0 -3 39 11 56 5 8 3 14 -7 18 -9 3 -15 1 -14 -7 4 -30 -1
-40 -14 -28 -10 8 -14 7 -14 -4 0 -8 4 -15 9 -15 5 0 6 -5 3 -10 -4 -6 -11 -8
-16 -5 -5 4 -9 1 -9 -4 0 -6 -5 -11 -11 -11 -6 0 -9 7 -5 15 3 8 0 15 -7 15
-21 -1 -67 -48 -67 -69 0 -11 -5 -23 -12 -27 -8 -5 -9 -2 -5 10 4 9 3 15 -2
11 -5 -3 -12 1 -14 7 -4 10 -8 9 -16 -2 -14 -19 -14 -30 0 -30 5 0 7 5 4 10
-3 6 -1 10 4 10 15 0 14 -13 -5 -36 -8 -10 -13 -13 -9 -6 4 7 0 12 -9 12 -12
0 -13 5 -4 31 6 16 8 33 4 36 -3 4 -6 -1 -6 -11 0 -10 -5 -14 -11 -10 -7 4
-10 1 -7 -7 8 -21 -10 -49 -27 -43 -23 9 -18 -12 8 -30 22 -15 22 -15 -7 -5
-32 11 -51 -3 -41 -30 3 -8 -7 -2 -21 13 -15 15 -33 25 -41 22 -7 -3 -13 0
-13 6 0 9 -3 9 -12 0 -18 -18 -18 -42 -1 -42 11 0 13 3 5 13 -8 9 -4 12 14 13
23 2 24 1 10 -15 -9 -10 -13 -21 -9 -25 4 -4 -5 -3 -20 3 -26 10 -32 7 -27
-14 1 -5 -1 -8 -3 -5 -3 3 -6 9 -6 13 0 9 -27 37 -35 37 -3 0 4 -16 15 -37
l21 -36 -26 17 c-24 15 -27 15 -32 1 -5 -11 -15 -14 -34 -11 -22 3 -27 0 -25
-13 2 -9 4 -18 4 -21 1 -3 5 1 10 9 7 11 11 9 21 -9 10 -18 10 -21 -1 -14 -8
5 -26 7 -41 5 -16 -1 -28 2 -28 9 0 6 5 8 13 4 7 -5 7 -1 -3 12 -8 10 -16 21
-18 24 -2 3 -2 -4 0 -15 2 -13 -3 -20 -14 -20 -9 0 -20 -4 -25 -9 -5 -5 -2 -6
6 -1 11 6 13 4 8 -9 -5 -14 -3 -17 8 -12 8 3 15 1 15 -4 0 -10 -27 -14 -60
-11 -9 1 -11 -1 -5 -6 16 -13 16 -31 0 -29 -8 1 -22 10 -33 19 -19 17 -32 14
-32 -9 0 -8 6 -11 17 -7 10 4 14 2 10 -4 -4 -6 -4 -13 0 -16 5 -2 2 -2 -6 0
-18 5 -42 -16 -34 -31 3 -6 0 -5 -8 2 -8 7 -14 20 -14 29 0 9 -7 19 -15 21
-12 4 -13 2 -3 -9 9 -11 7 -16 -13 -26 -14 -6 -26 -7 -30 -2 -3 5 -11 9 -17 9
-8 0 -8 -3 -2 -8 6 -4 19 -18 30 -31 l20 -24 -37 5 c-21 2 -38 0 -38 -6 0 -5
-3 -6 -7 -2 -5 4 0 13 9 20 15 11 16 15 3 32 -13 19 -14 19 -11 -1 4 -23 -12
-47 -25 -39 -6 3 -8 -6 -5 -21 3 -15 2 -25 -1 -21 -3 3 -13 0 -21 -7 -13 -10
-14 -9 -7 3 5 8 10 24 12 35 1 11 -1 14 -3 7 -3 -6 -10 -10 -14 -7 -5 3 -14
-5 -21 -17 -12 -22 -11 -22 7 -8 18 14 18 14 3 -5 -9 -11 -14 -26 -12 -32 3
-7 1 -13 -4 -13 -5 0 -10 11 -11 25 -1 13 -2 28 -3 32 -4 21 2 33 13 27 7 -4
8 -3 4 4 -10 17 -26 15 -26 -4 0 -8 -4 -13 -9 -9 -6 3 -6 -6 -1 -24 7 -25 6
-28 -11 -24 -10 3 -19 13 -19 22 0 13 -2 14 -9 2 -5 -8 -8 -23 -6 -33 3 -12 0
-16 -8 -11 -19 12 -37 12 -37 1 0 -6 -7 -8 -15 -4 -8 3 -14 2 -14 -2 1 -4 1
-14 0 -22 -1 -12 -4 -12 -12 3 -5 9 -7 22 -3 29 5 7 3 8 -5 4 -7 -5 -10 -14
-7 -22 3 -8 1 -14 -5 -14 -6 0 -8 -7 -5 -16 3 -9 2 -12 -5 -9 -6 4 -8 13 -6
19 3 7 1 19 -4 27 -7 12 -9 12 -9 0 0 -10 -3 -11 -14 -2 -11 9 -20 7 -41 -13
-22 -21 -31 -24 -49 -15 -20 10 -20 10 -2 -5 15 -12 23 -13 35 -4 13 10 14 10
4 -2 -7 -8 -14 -23 -14 -35 -1 -17 -2 -17 -6 -2 -4 14 -8 15 -18 7 -11 -9 -16
-6 -25 10 -6 11 -8 25 -5 30 3 6 -1 10 -9 10 -10 0 -13 -6 -9 -16 5 -14 3 -15
-13 -6 -17 9 -20 7 -22 -14 -1 -15 2 -23 8 -19 6 4 8 10 5 15 -3 4 4 6 15 3
19 -5 19 -6 -6 -19 -34 -18 -34 -18 -34 5 0 11 -5 23 -11 27 -8 5 -10 -1 -7
-18 4 -22 2 -24 -24 -20 -22 3 -27 1 -22 -11 4 -12 -1 -15 -21 -13 -34 4 -36
8 -14 30 11 12 19 14 19 7 0 -7 5 -9 10 -6 20 12 10 24 -20 23 -16 -1 -27 -5
-24 -10 3 -4 -4 -8 -16 -8 -18 0 -19 -3 -10 -22 11 -22 10 -22 -4 -4 -14 17
-17 18 -39 4 -21 -15 -24 -14 -45 9 -26 29 -27 33 -9 33 7 0 22 7 33 15 17 13
15 13 -16 1 -39 -16 -49 -33 -26 -42 9 -3 16 -10 16 -15 0 -4 -7 -6 -15 -3 -9
4 -15 1 -15 -7 0 -7 -6 -5 -14 7 -11 14 -11 21 -3 26 8 5 6 8 -5 8 -10 0 -18
-5 -18 -11 0 -8 -4 -8 -15 1 -15 12 -35 6 -35 -12 0 -6 6 -6 15 2 13 11 14 10
9 -4 -6 -16 -26 -16 -73 -1 -11 3 -23 0 -27 -6 -4 -7 -3 -9 4 -5 6 3 13 2 16
-2 3 -5 -7 -9 -22 -10 -15 0 -29 -1 -32 -2 -17 -6 -59 -6 -81 0 -17 5 -31 4
-38 -3 -8 -8 -14 -7 -23 2 -11 11 -10 12 2 6 8 -5 4 3 -10 17 -17 19 -27 23
-32 15 -4 -7 -8 -8 -8 -3 0 6 -6 2 -13 -8 -11 -15 -17 -17 -35 -7 -12 6 -22 9
-22 6 0 -4 -5 -3 -12 1 -7 5 -4 10 10 15 23 9 30 29 11 29 -5 0 -7 -4 -4 -10
9 -14 -38 -13 -53 2 -9 9 -17 9 -34 1 -26 -13 -58 -14 -58 -1 0 4 -5 8 -11 8
-5 0 -7 -4 -4 -10 4 -7 -2 -7 -19 0 -17 6 -26 5 -30 -3 -3 -7 -4 -3 -3 8 2 16
-3 19 -22 17 -13 -1 -32 5 -43 14 -11 10 -18 12 -18 6 0 -7 4 -12 10 -12 5 0
9 -6 7 -12 -1 -8 7 -12 19 -11 12 1 21 -4 21 -12 0 -10 -6 -11 -23 -5 -12 5
-25 6 -29 2 -4 -4 -5 -2 -4 3 4 15 -11 55 -21 55 -5 0 -7 -8 -5 -18 2 -12 -4
-18 -19 -20 -17 -1 -22 5 -24 25 -3 34 -14 41 -63 37 -26 -2 -37 1 -33 8 5 7
-2 9 -22 4 -28 -7 -28 -7 -9 9 14 12 16 18 7 21 -6 3 -9 11 -6 16 4 7 2 8 -4
4 -6 -4 -9 -13 -5 -21 8 -22 -17 -18 -38 7 -13 14 -19 16 -19 7 0 -11 -2 -11
-10 1 -5 8 -10 11 -10 5 0 -5 -5 -3 -10 5 -5 8 -10 10 -10 4 0 -9 -11 -9 -41
-1 -38 9 -40 11 -24 24 25 17 36 17 29 -2 -4 -8 -1 -15 5 -15 12 0 14 11 5 34
-3 9 -11 13 -17 9 -18 -11 -47 -11 -54 0 -3 6 -1 7 5 3 7 -4 12 -3 12 2 0 11
-30 25 -38 17 -3 -3 0 -5 6 -5 8 0 9 -7 1 -26 -7 -20 -6 -31 3 -43 7 -10 0 -3
-16 13 -18 20 -30 27 -33 18 -3 -6 -9 -9 -15 -6 -6 4 -1 12 13 20 19 10 20 13
7 14 -10 0 -18 7 -18 15 0 8 -6 12 -14 9 -9 -3 -12 -12 -9 -21 4 -11 2 -14 -6
-9 -6 4 -18 3 -26 -4 -10 -8 -15 -8 -21 1 -4 7 -3 9 3 6 6 -4 21 5 33 18 l24
25 -35 -6 c-19 -4 -37 -11 -40 -17 -4 -5 -9 -5 -13 1 -3 6 3 13 14 17 11 3 19
9 19 13 -3 20 2 33 11 27 5 -3 6 -13 3 -23 -6 -14 -4 -15 9 -5 8 7 17 12 19
10 2 -1 -3 4 -11 11 -8 7 -14 18 -12 24 2 8 -1 8 -11 0 -8 -7 -17 -9 -21 -5
-4 4 -4 -1 0 -11 5 -13 4 -17 -3 -13 -6 4 -24 2 -39 -3 -27 -11 -27 -10 -12 7
16 18 18 21 18 46 0 8 4 7 10 -3 6 -9 10 -10 10 -3 0 21 -17 23 -35 3 -17 -19
-18 -19 -36 3 -17 21 -18 21 -19 3 0 -15 -3 -17 -11 -9 -8 8 -8 17 0 32 10 17
9 21 -5 21 -14 0 -15 2 -3 18 13 15 12 16 -3 4 -14 -11 -17 -10 -21 5 -2 10
-4 4 -3 -14 0 -17 3 -31 6 -30 3 1 6 -2 8 -8 1 -5 -2 -10 -7 -10 -5 0 -13 -3
-17 -7 -4 -5 -12 -8 -18 -8 -6 0 -5 4 3 9 18 11 21 99 4 97 -17 -3 -29 -16
-15 -16 13 0 11 -35 -3 -47 -4 -5 -5 -2 -1 5 4 6 3 12 -2 12 -4 0 -8 16 -7 35
2 25 -3 39 -15 45 -12 6 -17 5 -17 -5 0 -8 7 -11 16 -8 13 5 14 4 3 -8 -11
-12 -16 -10 -33 10 -10 13 -20 20 -20 17 -1 -3 -3 -10 -4 -16 -1 -5 -3 -16 -4
-22 0 -7 -8 -2 -17 10 -8 12 -21 19 -27 16 -9 -5 -9 -4 0 6 7 8 8 22 2 42 -4
17 -7 34 -4 37 2 4 -8 7 -23 8 -15 0 -20 -1 -10 -4 18 -5 33 -33 18 -33 -6 0
-10 4 -10 8 0 4 -9 8 -21 8 -19 0 -19 -1 -3 -13 22 -16 10 -17 -15 -1 -18 11
-18 13 -3 26 9 7 12 11 6 8 -7 -3 -14 4 -17 15 -3 12 -10 18 -15 15 -6 -3 -8
2 -5 14 3 11 9 20 14 20 5 0 6 -7 3 -15 -5 -11 -1 -14 15 -12 11 2 24 7 28 12
5 4 2 5 -6 0 -10 -6 -11 -2 -6 15 5 15 3 20 -3 16 -6 -3 -13 -2 -16 3 -3 5 11
7 32 4 35 -4 36 -4 17 11 -11 8 -15 16 -8 16 7 0 21 -10 33 -22 18 -19 25 -20
18 -2 -2 3 9 12 24 20 19 10 34 11 52 4 21 -8 24 -7 20 8 -4 12 0 11 14 -6 12
-13 23 -18 27 -12 3 5 1 10 -6 10 -8 0 -8 4 1 15 15 18 44 20 34 3z m-274 -47
c0 -5 -9 -7 -20 -4 -11 3 -20 7 -20 9 0 2 9 4 20 4 11 0 20 -4 20 -9z m3480
-1 c0 -5 -2 -10 -4 -10 -3 0 -8 5 -11 10 -3 6 -1 10 4 10 6 0 11 -4 11 -10z
m-35 -40 c3 -6 -1 -7 -9 -4 -18 7 -21 14 -7 14 6 0 13 -4 16 -10z m-3477 -18
c2 -7 -1 -12 -8 -12 -6 0 -9 4 -6 9 4 5 1 12 -4 14 -6 3 -5 4 2 3 6 -1 14 -8
16 -14z m3422 8 c0 -5 -2 -10 -4 -10 -3 0 -8 5 -11 10 -3 6 -1 10 4 10 6 0 11
-4 11 -10z m-3396 -28 c3 -5 -1 -9 -9 -9 -8 0 -12 4 -9 9 3 4 7 8 9 8 2 0 6
-4 9 -8z m3255 -29 c0 -25 -1 -25 -8 -8 -5 11 -7 23 -4 28 8 14 13 7 12 -20z
m-3241 -38 c-3 -3 -9 2 -12 12 -6 14 -5 15 5 6 7 -7 10 -15 7 -18z m72 -6 c0
-5 -4 -9 -10 -9 -5 0 -10 7 -10 16 0 8 5 12 10 9 6 -3 10 -10 10 -16z m2795
-169 c-10 -11 -12 -20 -5 -28 7 -9 7 -9 -2 -2 -15 13 -21 50 -7 50 5 0 7 6 3
13 -5 8 -2 7 9 -2 16 -12 16 -16 2 -31z m-2608 -22 c-3 -8 -6 -5 -6 6 -1 11 2
17 5 13 3 -3 4 -12 1 -19z m2529 -26 c1 -7 0 -8 -3 -2 -2 5 -9 8 -14 4 -5 -3
-9 0 -9 6 0 15 23 7 26 -8z m-2406 -2 c0 -5 -8 -10 -17 -10 -15 0 -16 2 -3 10
19 12 20 12 20 0z m2305 -90 c3 -5 1 -10 -4 -10 -6 0 -11 5 -11 10 0 6 2 10 4
10 3 0 8 -4 11 -10z m-98 -24 c0 -8 -8 -11 -19 -8 -10 2 -15 8 -12 13 8 14 31
11 31 -5z m-1744 -89 c3 -8 -1 -14 -8 -14 -7 0 -11 6 -8 14 3 7 6 13 8 13 2 0
5 -6 8 -13z m1297 -16 c0 -6 -5 -13 -10 -16 -6 -4 -8 -10 -5 -15 3 -5 1 -11
-4 -14 -8 -5 -8 15 -1 34 1 3 2 8 1 13 0 4 4 7 9 7 6 0 10 -4 10 -9z m-950
-41 c0 -5 -7 -7 -15 -4 -10 4 -13 -1 -12 -22 1 -15 -4 -28 -11 -30 -7 -1 -8 0
-2 3 5 2 10 11 10 19 0 10 -8 13 -25 10 -15 -3 -23 -1 -20 5 4 5 10 7 15 4 4
-3 13 2 20 10 14 17 40 20 40 5z m-133 -32 c-3 -8 -6 -5 -6 6 -1 11 2 17 5 13
3 -3 4 -12 1 -19z m274 -17 c-7 -5 -11 -13 -8 -18 3 -5 0 -10 -7 -10 -8 0 -12
6 -9 14 3 7 0 13 -6 13 -6 0 -11 -5 -11 -11 0 -8 -5 -8 -15 1 -10 9 -15 9 -15
1 0 -15 -17 -14 -23 3 -4 9 2 12 21 10 14 -1 35 4 46 12 14 9 23 11 31 3 7 -7
6 -12 -4 -18z m329 9 c-8 -5 -17 -7 -19 -4 -3 3 1 9 9 14 8 5 17 7 19 4 3 -3
-1 -9 -9 -14z m365 10 c3 -5 1 -10 -4 -10 -6 0 -11 5 -11 10 0 6 2 10 4 10 3
0 8 -4 11 -10z m-385 -35 c8 -9 8 -15 2 -15 -6 0 -13 6 -16 13 -3 8 -9 6 -20
-7 -9 -11 -16 -15 -16 -10 0 11 21 34 31 34 4 0 12 -7 19 -15z m-210 -1 c0 -8
-19 -13 -24 -6 -3 5 1 9 9 9 8 0 15 -2 15 -3z m90 2 c0 -2 -7 -7 -16 -10 -8
-3 -12 -2 -9 4 6 10 25 14 25 6z m177 -2 c-3 -3 -12 -4 -19 -1 -8 3 -5 6 6 6
11 1 17 -2 13 -5z m58 -14 c3 -5 -1 -10 -10 -10 -9 0 -13 5 -10 10 3 6 8 10
10 10 2 0 7 -4 10 -10z m-1231 -401 c90 -25 125 -82 129 -209 l2 -75 -360 -1
c-198 0 -405 -4 -459 -8 l-99 -8 7 76 c7 78 17 111 50 159 39 58 58 62 336 67
140 3 278 7 305 8 28 1 68 -3 89 -9z m2743 -15 c15 -11 40 -38 55 -60 24 -34
27 -49 28 -112 0 -70 -1 -73 -27 -83 -16 -6 -124 -13 -243 -15 -118 -2 -313
-6 -432 -8 l-218 -5 0 39 c0 103 49 211 112 250 32 20 47 20 365 18 319 -3
333 -4 360 -24z m-1382 6 c26 -10 69 -53 92 -94 14 -23 18 -116 5 -116 -4 0
-12 -15 -17 -32 -7 -22 -17 -33 -30 -34 -11 -1 -23 -2 -27 -3 -5 -1 -11 -1
-15 -2 -5 -1 -16 -5 -25 -10 -10 -5 -18 -6 -18 -2 0 4 -29 8 -64 8 -35 0 -62
-3 -59 -8 2 -4 -7 -5 -22 -1 -37 9 -194 11 -188 2 2 -5 -3 -8 -12 -8 -9 0 -14
3 -11 8 4 6 -260 8 -289 2 -5 -1 -14 -1 -20 0 -5 2 -30 3 -55 4 l-45 1 -3 83
c-2 71 0 89 19 122 25 44 58 70 104 81 47 11 650 10 680 -1z m2673 1 c9 -6 30
-12 45 -16 15 -3 45 -21 65 -40 37 -33 37 -34 40 -122 1 -48 -1 -94 -7 -102
-7 -11 -73 -14 -362 -14 -195 0 -398 1 -453 2 l-99 1 5 75 c4 60 11 84 34 121
34 55 68 83 115 94 49 11 596 12 617 1z m-5299 -34 c35 -17 60 -65 73 -138 10
-60 10 -63 -12 -81 -13 -10 -29 -17 -37 -14 -7 3 -13 2 -13 -2 0 -6 -770 -10
-852 -4 -26 2 -28 5 -28 50 1 89 15 134 54 169 l36 33 377 0 c280 0 384 -3
402 -13z m1071 -356 c-13 -40 -105 -280 -129 -333 -11 -28 -27 -48 -36 -48 -8
0 -15 -4 -15 -10 0 -6 48 -10 125 -10 l125 0 0 -35 0 -35 -195 0 -195 0 -6 25
c-6 24 15 95 86 285 17 47 39 108 48 135 16 48 19 50 57 53 22 2 44 7 48 11 4
4 28 4 51 -2 41 -9 43 -11 36 -36z m2674 -25 c21 -9 45 -24 52 -34 16 -21 18
-66 3 -93 -8 -16 -7 -29 5 -54 52 -108 20 -222 -71 -260 -56 -24 -124 -19
-168 11 -21 14 -54 28 -72 31 -43 7 -70 50 -49 78 17 24 54 11 62 -22 6 -23
10 -25 43 -19 20 3 57 6 83 6 63 0 103 34 103 90 0 22 -8 46 -18 58 -31 34
-140 55 -164 31 -5 -5 -30 -9 -54 -7 -37 3 -44 6 -42 23 1 11 5 52 9 90 3 39
8 76 10 83 6 19 216 10 268 -12z m-1404 -115 l0 -120 33 -3 c29 -3 32 -6 35
-40 3 -37 2 -38 -31 -38 l-34 0 -9 -72 -9 -73 -35 0 -35 0 -3 67 -3 67 -46 7
c-25 4 -79 4 -119 0 -46 -3 -74 -2 -74 4 0 16 57 104 82 126 13 12 33 34 45
50 104 135 113 144 159 144 l44 0 0 -119z m2641 93 c9 -11 15 -57 17 -139 4
-112 6 -124 24 -128 16 -5 19 -13 16 -44 -3 -33 -6 -38 -26 -35 -19 3 -23 -1
-22 -20 5 -57 1 -69 -22 -66 -19 2 -24 10 -26 47 l-3 43 -37 -6 c-20 -3 -47
-6 -59 -6 -15 0 -23 -7 -25 -22 -5 -36 -43 -31 -43 5 1 25 -2 27 -42 27 -41 0
-43 1 -43 30 0 42 24 95 69 155 40 52 81 126 81 145 0 5 -9 10 -20 10 -11 0
-20 5 -20 10 0 6 35 10 84 10 64 0 87 -4 97 -16z m-5299 -21 c8 -10 25 -37 38
-60 19 -35 21 -45 10 -58 -7 -8 -21 -15 -31 -15 -18 0 -19 -9 -19 -123 0 -82
-4 -127 -12 -135 -7 -7 -30 -12 -53 -12 -23 0 -46 5 -53 12 -8 8 -12 53 -12
135 l0 123 -26 0 c-37 0 -64 18 -64 42 0 22 26 58 43 58 5 0 18 11 29 25 17
22 28 25 77 25 43 0 62 -5 73 -17z m4969 -289 c-9 -28 -9 -29 -10 -3 -1 14 2
29 6 32 11 12 13 2 4 -29z m-4662 -1020 c51 -20 71 -61 71 -147 l0 -65 -62 -6
c-35 -3 -124 -8 -198 -12 -74 -3 -138 -9 -142 -13 -4 -3 -9 -108 -10 -231 l-3
-225 -75 0 -75 0 -3 226 c-3 262 10 236 -122 238 -41 1 -104 4 -140 7 -36 4
-70 7 -76 7 -17 1 -27 120 -14 167 19 69 17 69 437 70 317 0 379 -2 412 -16z
m1321 -2 c50 -25 80 -83 80 -158 l0 -61 -57 -3 c-32 -1 -101 -4 -153 -5 -52
-2 -101 -3 -107 -4 -10 -1 -13 -30 -13 -107 0 -101 1 -108 25 -130 14 -13 25
-34 25 -47 0 -25 -23 -42 -41 -31 -5 3 -9 -30 -9 -76 l0 -81 -62 3 -63 3 -3
83 -3 82 -84 0 c-106 0 -115 4 -115 47 0 25 16 57 59 122 93 140 93 128 3 128
-42 -1 -95 2 -117 5 -22 4 -65 8 -95 9 -30 1 -68 9 -83 18 -27 15 -29 19 -25
73 5 67 41 123 91 137 18 5 185 9 372 10 300 0 344 -2 375 -17z m1363 -1 c40
-16 72 -69 72 -122 0 -25 -6 -57 -13 -71 -13 -23 -20 -25 -85 -27 -43 -1 -74
-7 -79 -14 -5 -8 -8 -8 -8 -1 0 7 -11 9 -27 7 -16 -2 -35 -4 -44 -4 -14 0 -17
-13 -17 -82 1 -106 -19 -147 -104 -215 -35 -27 -72 -60 -83 -72 l-20 -22 65 6
c36 3 81 2 100 -2 33 -7 35 -10 35 -47 l0 -40 -157 -3 -158 -3 0 36 c0 56 41
123 135 220 114 118 126 149 80 199 -16 17 -32 26 -41 22 -8 -3 -12 -1 -9 4
10 16 -54 4 -74 -14 -22 -20 -70 -21 -77 -2 -4 9 -22 14 -52 14 -43 1 -117 9
-164 18 -10 1 -18 -2 -18 -8 0 -7 -4 -7 -12 0 -7 6 -15 10 -18 10 -9 -2 -85
24 -92 31 -4 3 -3 35 2 71 7 54 14 70 40 93 l30 27 385 0 c212 0 395 -4 408
-9z m1357 -13 c51 -26 58 -42 59 -135 1 -53 -2 -63 -16 -64 -10 0 -34 -2 -53
-4 -19 -2 -78 -4 -131 -6 l-95 -3 -36 -55 c-54 -85 -66 -111 -121 -275 -51
-149 -52 -151 -83 -154 -38 -4 -64 19 -64 54 0 14 17 65 37 112 35 82 49 111
129 259 19 34 34 66 34 71 0 5 -56 9 -125 10 -69 1 -130 4 -135 7 -6 4 -10 2
-10 -2 0 -5 -35 -9 -78 -10 -42 -1 -82 -2 -87 -3 -6 -1 -14 -1 -20 0 -12 4
-34 7 -59 9 -17 1 -18 7 -13 56 7 67 29 106 76 134 35 20 49 21 391 21 349 0
357 0 400 -22z m1391 7 c36 -19 46 -44 55 -129 8 -82 6 -84 -151 -91 -49 -3
-107 -5 -127 -6 -27 -2 -38 -7 -41 -21 -5 -16 -13 -19 -49 -16 -36 2 -44 7
-46 26 -3 21 -7 22 -104 22 l-100 0 4 -94 3 -94 32 28 c17 16 41 31 53 35 34
11 106 -4 136 -27 41 -33 84 -107 84 -145 0 -55 -55 -144 -106 -171 -35 -18
-101 -24 -144 -12 -67 18 -172 131 -146 157 4 4 30 7 58 8 50 0 52 -1 60 -32
7 -25 16 -34 44 -42 56 -15 103 -3 125 33 26 42 24 72 -6 101 -31 32 -94 34
-141 4 -25 -15 -46 -19 -86 -17 l-53 3 -5 131 c-5 124 -6 131 -25 127 -11 -2
-49 -3 -85 -2 -36 1 -82 3 -103 3 l-39 1 4 83 c3 82 4 84 40 118 l38 34 395 0
c338 0 400 -2 426 -15z m-5420 -1584 c64 -31 80 -173 22 -196 -10 -3 -69 -9
-132 -11 -62 -3 -118 -7 -122 -10 -5 -3 -9 -18 -9 -33 0 -28 -150 -333 -182
-371 -20 -23 -79 -28 -96 -7 -11 12 24 106 76 204 11 21 34 68 51 106 l30 67
-109 0 c-96 0 -111 2 -128 20 -10 11 -29 19 -43 19 -50 -3 -194 29 -228 50
-24 15 -9 108 23 139 l26 27 313 6 c389 7 475 5 508 -10z m1331 -22 c22 -23
44 -52 49 -66 12 -31 12 -90 0 -98 -13 -7 -102 -15 -241 -20 -63 -2 -123 -5
-132 -5 -30 -2 -35 -70 -13 -190 10 -54 -20 -86 -87 -93 -29 -3 -89 -19 -132
-36 -43 -17 -83 -28 -87 -25 -5 3 -9 29 -9 59 0 57 7 65 60 65 26 0 28 3 34
53 4 29 18 77 31 106 14 29 25 57 25 61 0 7 -111 12 -307 12 -53 1 -53 1 -53
32 1 69 59 171 102 179 13 2 180 5 372 6 l349 1 39 -41z m1344 22 c29 -18 64
-74 64 -103 0 -25 -24 -67 -45 -77 -28 -15 -95 -22 -207 -24 l-98 -2 0 -47 c0
-41 -5 -54 -35 -87 -19 -21 -35 -43 -35 -48 0 -5 15 -14 33 -21 47 -17 63 -49
47 -96 -37 -114 -167 -162 -257 -97 -22 16 -50 45 -62 65 -29 47 -22 83 28
136 39 42 72 51 112 30 17 -9 19 -7 19 18 0 16 13 45 30 68 16 21 30 43 30 47
0 11 -42 46 -55 46 -5 0 -2 -4 8 -10 9 -5 17 -15 17 -21 0 -6 -7 -5 -17 3 -15
11 -14 10 1 -9 11 -12 17 -22 15 -23 -2 0 -20 -3 -39 -6 -82 -13 -112 -8 -137
21 -23 27 -83 44 -83 23 0 -5 -7 -4 -15 3 -9 7 -15 8 -15 2 0 -5 -8 -9 -17 -7
-63 13 -93 13 -87 2 3 -7 -1 -4 -9 6 -15 18 -16 18 -25 0 -10 -17 -11 -17 -18
0 -8 23 2 134 17 177 7 17 21 35 33 40 11 5 190 9 396 9 350 1 377 0 406 -18z
m1350 3 c22 -10 43 -32 55 -55 19 -37 19 -40 2 -76 -16 -33 -24 -39 -68 -49
-28 -6 -57 -13 -65 -16 -8 -4 -31 -9 -50 -12 -19 -3 -46 -7 -60 -10 -77 -13
-126 -18 -225 -22 -60 -3 -121 -7 -135 -9 -14 -2 -28 -4 -32 -4 -5 -1 -8 -25
-8 -55 0 -30 -4 -58 -10 -61 -6 -4 -10 9 -10 33 0 22 -3 59 -6 83 l-6 44 -95
3 c-131 4 -143 10 -143 68 0 62 32 119 79 138 30 12 100 15 389 15 308 1 358
-1 388 -15z m1384 3 c14 -7 36 -32 49 -56 24 -44 44 -111 32 -109 -3 0 -8 -1
-11 -2 -20 -7 -117 -29 -170 -37 -19 -3 -110 -4 -202 -4 -91 1 -169 -2 -172
-7 -6 -10 -138 -8 -216 3 -30 4 -65 7 -77 7 -12 -1 -24 2 -28 7 -3 5 -14 7
-24 4 -10 -3 -22 0 -25 6 -4 6 -18 11 -32 11 -27 0 -28 6 -13 70 11 49 29 74
74 101 28 18 57 19 410 19 286 0 386 -3 405 -13z m-430 -252 c8 -9 29 -15 55
-15 29 0 45 5 49 15 7 20 22 19 46 -5 21 -21 28 -70 10 -70 -10 0 -50 -71 -50
-90 0 -5 11 -10 24 -10 31 0 52 -21 61 -60 14 -65 -7 -98 -104 -168 -55 -39
-81 -42 -81 -7 0 22 -4 25 -36 25 -83 0 -154 78 -154 168 0 73 42 182 80 207
39 26 83 30 100 10z m-1235 -45 c15 -6 32 -24 40 -45 18 -41 19 -156 2 -205
-13 -36 -66 -80 -99 -80 -10 0 -33 -10 -49 -22 -42 -31 -136 -32 -169 -3 -25
22 -61 95 -54 107 3 4 16 8 30 8 18 0 24 -5 24 -23 0 -58 69 -65 120 -12 34
35 58 43 76 26 5 -6 18 -3 33 8 23 18 22 18 -92 24 -148 7 -177 20 -177 80 0
52 28 100 66 114 76 28 204 40 249 23z m-195 -256 c0 -3 -5 -15 -11 -26 -9
-17 -13 -18 -20 -7 -15 23 -10 39 11 39 11 0 20 -3 20 -6z m-830 -229 c-6 -15
-13 -26 -15 -23 -3 2 1 19 8 37 6 17 13 28 15 23 1 -5 -2 -22 -8 -37z m-30
-55 c-6 -11 -13 -20 -16 -20 -2 0 0 9 6 20 6 11 13 20 16 20 2 0 0 -9 -6 -20z
m-20 -34 c0 -2 -8 -10 -17 -17 -16 -13 -17 -12 -4 4 13 16 21 21 21 13z
m-1368 -790 c22 -10 12 -30 -9 -21 -9 3 -25 -3 -36 -12 -14 -13 -18 -13 -12
-3 8 13 7 13 -8 1 -10 -8 -17 -9 -17 -3 0 7 -10 8 -31 2 -16 -5 -37 -6 -46 -3
-9 4 -14 2 -10 -3 3 -6 -3 -11 -14 -11 -12 -1 -17 3 -13 10 5 9 3 9 -6 0 -11
-10 -17 -10 -29 0 -12 9 -13 9 -7 0 4 -7 2 -13 -3 -13 -6 0 -11 4 -11 8 0 5
-17 8 -37 6 -21 -1 -37 -7 -36 -12 2 -6 -10 -4 -25 4 -16 8 -28 10 -30 4 -5
-14 -18 -12 -36 6 -12 12 -16 12 -16 2 0 -8 -9 -14 -19 -14 -11 0 -18 3 -16 6
2 4 -22 6 -55 6 -37 -1 -56 -4 -52 -11 3 -5 -1 -4 -10 2 -8 7 -18 10 -21 6 -4
-3 -7 -1 -7 5 0 6 -6 9 -14 6 -8 -3 -17 -1 -21 5 -10 18 -25 12 -18 -6 4 -12
-1 -9 -15 7 -12 14 -20 18 -17 10 4 -12 -2 -16 -24 -18 -22 -2 -28 2 -27 15 0
10 10 21 21 25 28 9 706 4 727 -6z m1350 -13 c20 -16 41 -36 47 -45 9 -15 8
-18 -8 -18 -11 0 -23 -5 -26 -10 -5 -8 -11 -7 -21 1 -11 9 -14 9 -14 -1 0 -7
-8 -10 -20 -7 -11 3 -20 0 -20 -5 0 -6 -6 -5 -15 2 -12 10 -16 9 -21 -4 -3 -9
-14 -16 -23 -16 -14 0 -14 2 -1 10 13 8 12 10 -2 10 -10 0 -18 -5 -18 -11 0
-8 -5 -8 -15 1 -10 8 -19 9 -27 3 -7 -5 -39 -9 -70 -9 -32 1 -58 -2 -58 -6 0
-5 -4 -8 -10 -8 -5 0 -10 8 -10 18 0 10 -3 13 -8 7 -8 -12 -86 -14 -98 -3 -4
4 -13 0 -21 -10 -9 -12 -13 -13 -11 -3 2 10 -7 15 -29 17 -18 1 -30 -2 -27 -7
3 -5 1 -9 -5 -9 -5 0 -13 4 -16 10 -3 5 -32 7 -65 5 -34 -3 -61 -1 -65 5 -3 5
-12 10 -18 10 -7 0 -6 -4 3 -11 12 -9 12 -10 -3 -5 -10 3 -23 6 -28 6 -6 0 -8
4 -5 8 3 5 -1 9 -9 9 -8 0 -11 -5 -8 -10 4 -7 -1 -7 -13 -2 -10 4 -27 8 -36 9
-45 5 -27 45 34 74 41 20 60 21 384 22 l341 0 35 -27z m1372 -22 c27 -25 35
-70 14 -72 -7 0 -44 -1 -83 -2 -38 -1 -75 -6 -82 -10 -6 -4 -14 -4 -17 1 -3 5
-96 8 -208 7 -112 0 -209 3 -215 8 -8 6 -13 6 -13 -1 0 -6 -19 -8 -47 -6 -98
8 -139 9 -162 1 -21 -7 -23 -5 -17 20 4 16 20 41 37 56 l30 28 369 -3 368 -3
26 -24z m1379 3 c40 -19 67 -78 38 -82 -54 -8 -871 -10 -876 -2 -7 11 11 47
32 68 26 27 72 30 420 31 306 1 357 -1 386 -15z m-5432 -4 c28 -16 25 -57 -5
-62 -13 -3 -204 -5 -425 -5 l-400 -1 14 29 c8 15 23 33 32 38 25 14 758 15
784 1z m2621 -180 c21 -23 38 -46 38 -53 0 -7 -54 -59 -120 -116 -65 -57 -138
-126 -161 -153 -22 -27 -66 -68 -97 -91 -32 -23 -59 -45 -62 -48 -24 -29 -105
-89 -122 -89 -11 0 -33 9 -49 21 -39 27 -38 60 4 94 17 15 115 107 217 205
270 260 281 270 298 270 8 0 32 -18 54 -40z m-2974 -237 l2 -203 -64 0 -65 0
-3 200 c-3 226 -10 209 82 206 l45 -1 3 -202z m1602 68 c25 -47 18 -56 -195
-237 -122 -105 -202 -164 -221 -164 -10 0 -36 12 -57 27 l-39 27 38 34 c22 19
86 78 143 131 57 53 140 126 185 162 78 64 82 66 108 53 15 -8 32 -23 38 -33z
m2314 -89 c14 -13 17 -26 12 -59 -3 -26 -2 -43 4 -43 6 0 10 -16 10 -35 0 -32
-2 -35 -30 -35 l-30 0 0 68 c0 79 -17 115 -44 93 -12 -10 -16 -32 -16 -87 0
-67 -2 -74 -20 -74 -19 0 -20 7 -20 94 l0 95 28 3 c43 6 85 -2 106 -20z m205
17 c35 -12 51 -35 51 -73 0 -19 -5 -26 -20 -26 -15 0 -20 7 -20 28 0 47 -12
55 -58 43 -43 -12 -52 -25 -52 -76 0 -24 6 -38 19 -45 32 -17 67 -12 83 12 19
28 48 18 48 -17 0 -15 6 -25 15 -25 17 0 35 30 35 59 0 26 45 30 54 5 10 -26
7 -34 -14 -34 -12 0 -24 -10 -29 -24 -5 -13 -17 -26 -25 -29 -17 -7 -46 1 -46
12 0 3 -4 12 -9 19 -6 11 -15 9 -42 -7 -46 -28 -65 -26 -100 8 -47 48 -36 139
21 168 31 16 48 16 89 2z m-166 -19 c3 -11 1 -20 -4 -20 -5 0 -9 9 -9 20 0 11
2 20 4 20 2 0 6 -9 9 -20z m1270 -76 c-1 -21 1 -30 4 -19 9 35 35 55 70 55 30
0 33 -3 33 -30 0 -32 1 -33 24 -24 20 8 21 34 1 34 -8 0 -15 5 -15 10 0 6 30
10 69 10 l70 0 -11 -31 c-6 -16 -8 -48 -4 -69 5 -32 2 -44 -14 -60 -23 -23
-33 -24 -62 -9 -14 8 -23 8 -31 0 -6 -6 -21 -11 -34 -11 -26 0 -53 43 -54 87
l0 28 -10 -25 c-6 -14 -8 -38 -5 -53 4 -20 2 -27 -7 -25 -6 3 -13 21 -15 41
-2 28 -8 37 -21 37 -11 0 -29 8 -41 18 -41 33 -8 88 45 77 6 -1 9 -19 8 -41z
m384 31 c5 -16 -22 -55 -39 -55 -5 0 -6 10 -2 22 6 21 5 21 -10 9 -12 -10 -15
-22 -10 -45 6 -27 5 -29 -9 -18 -13 11 -16 9 -19 -15 -2 -17 -10 -29 -20 -31
-15 -3 -16 1 -9 20 5 14 4 29 -2 40 -9 13 -6 21 14 37 16 14 18 19 7 15 -12
-4 -18 -1 -18 9 0 12 13 17 48 20 26 2 51 4 55 5 4 1 10 -5 14 -13z m-17 -85
c0 -5 -7 -10 -15 -10 -8 0 -15 5 -15 10 0 6 7 10 15 10 8 0 15 -4 15 -10z"/>
<path d="M6875 7000 c-3 -5 -1 -10 4 -10 6 0 11 5 11 10 0 6 -2 10 -4 10 -3 0
-8 -4 -11 -10z"/>
<path d="M6815 6930 c-3 -5 -1 -10 4 -10 6 0 11 5 11 10 0 6 -2 10 -4 10 -3 0
-8 -4 -11 -10z"/>
<path d="M3750 6909 c0 -5 6 -7 13 -3 9 6 9 4 -1 -8 -12 -15 -2 -34 12 -21 12
12 6 43 -9 43 -8 0 -15 -5 -15 -11z"/>
<path d="M6721 6901 c-7 -5 -9 -11 -4 -14 5 -3 15 -2 22 2 7 5 9 11 4 14 -5 3
-15 2 -22 -2z"/>
<path d="M6567 6856 c-19 -15 -23 -36 -6 -36 5 0 8 4 4 9 -3 6 3 14 12 20 10
5 16 12 13 14 -3 3 -13 0 -23 -7z"/>
<path d="M6658 6853 c6 -3 10 -9 6 -14 -8 -14 2 -11 14 4 8 10 6 13 -11 14
-12 0 -16 -1 -9 -4z"/>
<path d="M6300 6694 c0 -6 7 -19 16 -30 14 -18 14 -18 3 6 -14 31 -19 36 -19
24z"/>
<path d="M4167 6683 c-4 -3 -7 -11 -7 -17 0 -6 5 -5 12 2 6 6 9 14 7 17 -3 3
-9 2 -12 -2z"/>
<path d="M6231 6674 c0 -11 3 -14 6 -6 3 7 2 16 -1 19 -3 4 -6 -2 -5 -13z"/>
<path d="M5920 6559 c0 -5 5 -7 10 -4 6 3 10 8 10 11 0 2 -4 4 -10 4 -5 0 -10
-5 -10 -11z"/>
<path d="M4450 6550 c-9 -6 -10 -10 -3 -10 6 0 15 5 18 10 8 12 4 12 -15 0z"/>
<path d="M4464 6529 c-5 -9 6 -16 24 -13 6 1 17 2 24 3 6 0 8 4 4 8 -9 10 -46
11 -52 2z"/>
<path d="M5920 6529 c0 -5 5 -7 10 -4 6 3 10 8 10 11 0 2 -4 4 -10 4 -5 0 -10
-5 -10 -11z"/>
<path d="M4557 6512 c-2 -4 0 -20 4 -37 3 -16 8 -25 9 -20 1 6 3 15 5 20 1 6
3 16 3 24 2 11 5 11 20 0 14 -11 15 -11 5 1 -14 15 -41 22 -46 12z"/>
<path d="M5727 6508 c6 -7 9 -21 8 -31 -2 -9 0 -15 5 -12 5 3 7 13 5 23 -2 9
-4 20 -4 25 -1 4 -6 7 -12 7 -8 0 -8 -4 -2 -12z"/>
<path d="M5880 6510 c0 -5 4 -10 9 -10 6 0 13 5 16 10 3 6 -1 10 -9 10 -9 0
-16 -4 -16 -10z"/>
<path d="M4650 6485 c0 -8 5 -15 10 -15 6 0 10 7 10 15 0 8 -4 15 -10 15 -5 0
-10 -7 -10 -15z"/>
<path d="M4738 6483 c7 -3 16 -2 19 1 4 3 -2 6 -13 5 -11 0 -14 -3 -6 -6z"/>
<path d="M5640 6469 c0 -5 5 -7 10 -4 6 3 10 8 10 11 0 2 -4 4 -10 4 -5 0 -10
-5 -10 -11z"/>
<path d="M4771 6454 c0 -11 3 -14 6 -6 3 7 2 16 -1 19 -3 4 -6 -2 -5 -13z"/>
<path d="M4791 6444 c0 -11 3 -14 6 -6 3 7 2 16 -1 19 -3 4 -6 -2 -5 -13z"/>
<path d="M4951 6446 c-9 -11 -9 -16 0 -22 8 -5 9 -3 4 6 -6 10 -4 12 8 7 11
-4 14 -2 10 9 -6 17 -8 17 -22 0z"/>
<path d="M5450 6431 c0 -5 5 -13 10 -16 6 -3 10 -2 10 4 0 5 -4 13 -10 16 -5
3 -10 2 -10 -4z"/>
<path d="M5010 6423 c0 -5 13 -14 29 -20 24 -9 29 -8 24 4 -3 7 -8 12 -11 9
-2 -3 -13 -1 -23 5 -11 5 -19 6 -19 2z"/>
<path d="M5180 6415 c-8 -9 -8 -15 -2 -15 12 0 26 19 19 26 -2 2 -10 -2 -17
-11z"/>
<path d="M5236 6421 c-3 -5 1 -14 9 -21 10 -9 15 -9 15 -1 0 6 -5 11 -11 11
-5 0 -7 5 -4 10 3 6 4 10 1 10 -3 0 -7 -4 -10 -9z"/>
<path d="M5420 6420 c-8 -5 -12 -12 -9 -15 4 -3 12 1 19 10 14 17 11 19 -10 5z"/>
<path d="M5092 6391 c-11 -6 -10 -10 3 -15 10 -3 23 -2 30 4 9 8 15 7 18 -2 4
-9 6 -9 6 -1 1 18 -20 27 -29 13 -5 -8 -9 -9 -11 -1 -2 6 -10 7 -17 2z"/>
<path d="M5525 6390 c-3 -5 -1 -10 4 -10 6 0 11 5 11 10 0 6 -2 10 -4 10 -3 0
-8 -4 -11 -10z"/>
<path d="M3820 5408 c-24 -62 -56 -140 -72 -172 -15 -33 -28 -65 -28 -72 0
-18 24 -24 57 -14 27 8 27 8 -10 9 l-37 1 20 40 c11 21 20 44 20 51 0 6 10 22
23 34 29 28 125 197 126 223 1 7 -11 12 -27 12 -27 0 -31 -6 -72 -112z"/>
<path d="M3811 5234 c0 -11 3 -14 6 -6 3 7 2 16 -1 19 -3 4 -6 -2 -5 -13z"/>
<path d="M6516 5421 c-3 -5 14 -11 39 -13 31 -2 45 1 45 9 0 15 -76 18 -84 4z"/>
<path d="M5112 5334 l-42 -54 50 0 50 0 0 55 c0 30 -3 55 -7 54 -5 0 -27 -25
-51 -55z"/>
<path d="M7840 5434 c0 -6 -27 -53 -60 -104 -33 -51 -60 -97 -60 -102 0 -4 32
-8 70 -8 l70 0 0 98 c0 53 -5 104 -10 112 -5 8 -10 10 -10 4z"/>
<path d="M3812 3766 c-18 -24 -32 -47 -32 -50 0 -3 16 -6 35 -6 l35 0 0 50 c0
28 -1 50 -3 50 -2 0 -18 -20 -35 -44z"/>
<path d="M5111 2111 c-34 -34 -21 -71 26 -71 39 0 44 75 5 88 -6 2 -20 -6 -31
-17z"/>
<path d="M7910 2216 c0 -17 -7 -26 -25 -30 -23 -6 -25 -10 -25 -69 1 -76 14
-101 57 -104 29 -3 33 0 38 31 4 19 2 43 -4 54 -6 12 -11 45 -11 75 0 40 -4
56 -15 61 -11 4 -15 -1 -15 -18z"/>
<path d="M7822 2177 c-21 -25 -25 -92 -8 -125 24 -47 36 -39 21 12 -10 33 -11
55 -4 81 11 41 8 53 -9 32z"/>
<path d="M6505 2209 c-22 -5 -44 -15 -50 -21 -7 -8 -5 -9 7 -5 17 6 48 -16 48
-33 0 -5 -7 -16 -16 -24 -14 -15 -8 -16 70 -16 l86 0 0 39 c0 68 -40 84 -145
60z"/>
<path d="M7842 370 c0 -14 2 -19 5 -12 2 6 2 18 0 25 -3 6 -5 1 -5 -13z"/>
<path d="M7945 381 c-3 -6 0 -11 9 -11 8 0 17 -6 20 -12 3 -7 5 -4 3 6 -2 22
-22 32 -32 17z"/>
<path d="M7726 364 c-4 -10 -2 -22 3 -27 7 -7 13 -5 17 7 4 10 2 22 -3 27 -7
7 -13 5 -17 -7z"/>
<path d="M7930 324 c0 -8 5 -12 10 -9 6 3 10 10 10 16 0 5 -4 9 -10 9 -5 0
-10 -7 -10 -16z"/>
<path d="M7972 313 c-2 -26 -5 -30 -23 -26 -11 3 -23 12 -26 19 -8 20 -47 17
-68 -6 -9 -10 -15 -26 -12 -35 9 -22 37 -19 37 5 0 26 18 25 47 -2 21 -20 25
-20 39 -6 10 10 14 27 11 49 l-4 34 -1 -32z"/>
<path d="M10080 80 l0 -80 80 0 80 0 0 80 0 80 -80 0 -80 0 0 -80z"/>
</g>
</svg>
